<?xml version="1.0" encoding="UTF-8" standalone="no"?>
<svg
   xmlns:dc="http://purl.org/dc/elements/1.1/"
   xmlns:cc="http://creativecommons.org/ns#"
   xmlns:rdf="http://www.w3.org/1999/02/22-rdf-syntax-ns#"
   xmlns:svg="http://www.w3.org/2000/svg"
   xmlns="http://www.w3.org/2000/svg"
   xmlns:sodipodi="http://sodipodi.sourceforge.net/DTD/sodipodi-0.dtd"
   xmlns:inkscape="http://www.inkscape.org/namespaces/inkscape"
   width="210mm"
   height="297mm"
   viewBox="0 0 210 297"
   version="1.1"
   id="svg8"
   inkscape:version="1.0.1 (3bc2e813f5, 2020-09-07)"
   sodipodi:docname="fire_sketch.svg">
  <defs
     id="defs2" />
  <sodipodi:namedview
     id="base"
     pagecolor="#ffffff"
     bordercolor="#666666"
     borderopacity="1.0"
     inkscape:pageopacity="0.0"
     inkscape:pageshadow="2"
     inkscape:zoom="0.98994949"
     inkscape:cx="319.49187"
     inkscape:cy="554.5403"
     inkscape:document-units="mm"
     inkscape:current-layer="layer1"
     inkscape:document-rotation="0"
     showgrid="false"
     inkscape:window-width="1500"
     inkscape:window-height="1009"
     inkscape:window-x="260"
     inkscape:window-y="32"
     inkscape:window-maximized="0"
     inkscape:snap-object-midpoints="true" />
  <metadata
     id="metadata5">
    <rdf:RDF>
      <cc:Work
         rdf:about="">
        <dc:format>image/svg+xml</dc:format>
        <dc:type
           rdf:resource="http://purl.org/dc/dcmitype/StillImage" />
        <dc:title />
      </cc:Work>
    </rdf:RDF>
  </metadata>
  <g
     inkscape:label="Слой 1"
     inkscape:groupmode="layer"
     id="layer1">
    <path
       style="fill:#fc8c00;fill-opacity:1;stroke:#000000;stroke-width:0.481107;stroke-linecap:butt;stroke-linejoin:miter;stroke-miterlimit:4;stroke-dasharray:none;stroke-opacity:1"
       d="m 83.727503,143.86613 c -1.967773,1.85799 -0.894716,4.24482 -1.287421,6.37673 -0.743351,1.59964 -1.793618,3.38693 -2.927195,4.88229 -3.413909,4.50347 -4.3058,8.23452 -4.54882,11.78994 0.235616,6.17885 -0.09448,12.45923 8.249945,17.18265 6.074886,1.55105 12.476863,2.80416 17.913678,-1.48851 5.43624,-4.47199 6.74668,-11.87332 5.52755,-17.68551 -0.45525,-2.79361 -2.30496,-5.72666 -3.75515,-8.61977 -0.45809,-1.99666 -0.58119,-4.24949 -2.78081,-4.9144 -0.747519,0.36787 -0.958044,1.00479 -2.425194,0.76097 -1.060105,-1.15707 -1.339058,-2.82899 -0.730364,-5.08597 0.02288,-1.38825 0.240926,-2.4007 -0.601624,-4.43684 -0.834536,-1.6043 -2.089284,-1.70855 -0.806488,-6.06362 0.306831,-1.2946 0.823265,-2.6685 -0.784512,-3.23865 -3.0071,-0.0464 -5.762697,1.12271 -8.126798,4.18409 -0.982268,1.6848 -1.004244,3.04012 -0.101867,4.91175 -0.03981,0.59489 0.378583,1.1285 -0.711201,1.86336 -0.48501,-0.16616 -1.234993,-0.53142 -2.103729,-0.41851 z"
       id="path24"
       sodipodi:nodetypes="ccsccccccccccccccc"
       inkscape:export-xdpi="64.287384"
       inkscape:export-ydpi="64.287384" />
    <path
       style="fill:#fed306;fill-opacity:1;stroke:none;stroke-width:0.0851518;stroke-linecap:butt;stroke-linejoin:miter;stroke-miterlimit:4;stroke-dasharray:none;stroke-opacity:1"
       d="m 93.998319,158.80343 c 1.189468,-0.25452 1.63499,-0.86329 2.3043,-1.36551 2.245231,-1.19147 3.054967,0.36588 4.096531,1.47931 1.42286,1.90829 2.87867,5.07703 2.98687,9.85709 0.15532,4.04252 -1.19641,7.07051 -3.513164,9.37381 -3.19688,3.07452 -6.895558,3.45758 -10.675146,3.40666 -5.467859,-0.68178 -7.437709,-3.06529 -8.995194,-5.6494 -2.058169,-4.60085 -1.291394,-8.78981 -0.55318,-12.12985 0.600073,-1.7676 1.001342,-3.71982 2.615053,-4.54618 1.113487,-0.0192 2.35305,0.75986 3.006845,1.37722 0.318391,0.1177 1.658084,-0.67781 1.841075,-2.90603 0.545065,-1.30313 0.694745,-2.7482 2.635175,-3.55044 2.042177,-0.15234 2.039623,1.3031 2.57951,2.25657 0.420454,1.13768 0.769602,2.33267 1.671325,2.39675 z"
       id="path849"
       sodipodi:nodetypes="cccccccccccccc"
       inkscape:export-xdpi="64.287384"
       inkscape:export-ydpi="64.287384" />
    <path
       style="fill:#fffb3a;fill-opacity:1;stroke:none;stroke-width:0.0553486;stroke-linecap:butt;stroke-linejoin:miter;stroke-miterlimit:4;stroke-dasharray:none;stroke-opacity:1"
       d="m 90.611851,163.30276 c 1.305155,0.0311 2.493831,1.11054 3.584454,3.0724 1.050041,0.7994 2.145705,0.35549 3.271531,-0.91034 1.547727,-1.12239 2.482932,0.77026 2.816364,1.87757 0.97154,6.53399 -3.358747,9.74092 -5.255783,10.26976 -6.967066,1.09932 -10.090807,-0.36534 -11.417412,-2.73923 -3.540764,-8.23229 -0.446153,-8.90355 0.272869,-9.1663 1.637613,0.25416 1.720329,0.95256 2.403868,1.4793 2.135606,-1.1658 1.974644,-2.3316 2.945638,-3.4974 0.471272,-0.32895 0.92588,-0.37446 1.378471,-0.38576 z"
       id="path851"
       sodipodi:nodetypes="cccccccccc"
       inkscape:export-xdpi="64.287384"
       inkscape:export-ydpi="64.287384" />
    <rect
       style="fill:none;fill-opacity:1;stroke:#1a0000;stroke-width:0;stroke-linecap:round;stroke-linejoin:round;stroke-miterlimit:4;stroke-dasharray:none;stroke-opacity:1"
       id="rect863"
       width="83.761383"
       height="83.761383"
       x="49.139393"
       y="117.55427"
       inkscape:export-xdpi="64.287384"
       inkscape:export-ydpi="64.287384" />
  </g>
</svg>
