<?xml version="1.0" encoding="UTF-8" standalone="no"?>
<svg
   xmlns:dc="http://purl.org/dc/elements/1.1/"
   xmlns:cc="http://creativecommons.org/ns#"
   xmlns:rdf="http://www.w3.org/1999/02/22-rdf-syntax-ns#"
   xmlns:svg="http://www.w3.org/2000/svg"
   xmlns="http://www.w3.org/2000/svg"
   xmlns:sodipodi="http://sodipodi.sourceforge.net/DTD/sodipodi-0.dtd"
   xmlns:inkscape="http://www.inkscape.org/namespaces/inkscape"
   width="210mm"
   height="297mm"
   viewBox="0 0 210 297"
   version="1.1"
   id="svg8"
   inkscape:version="1.0.1 (3bc2e813f5, 2020-09-07)"
   inkscape:export-filename="C:\Users\Богдан\Desktop\Python 20-21\Lessons\21\4\data\2.png"
   inkscape:export-xdpi="96"
   inkscape:export-ydpi="96"
   sodipodi:docname="sketch.svg">
  <defs
     id="defs2">
    <rect
       x="-85.441361"
       y="-90.782363"
       width="131.03345"
       height="26.212247"
       id="rect2139" />
    <rect
       x="-6.2625015"
       y="-174.7584"
       width="115.13689"
       height="40.722741"
       id="rect2131" />
    <rect
       x="-85.44136"
       y="-90.782364"
       width="131.03345"
       height="26.212248"
       id="rect2139-8" />
    <rect
       x="-85.44136"
       y="-90.782364"
       width="131.03345"
       height="26.212248"
       id="rect2164" />
    <rect
       x="-85.44136"
       y="-90.782364"
       width="131.03345"
       height="26.212248"
       id="rect2139-4" />
    <rect
       x="-85.44136"
       y="-90.782364"
       width="131.03345"
       height="26.212248"
       id="rect2164-8" />
    <rect
       x="-85.44136"
       y="-90.782364"
       width="131.03345"
       height="26.212248"
       id="rect2139-0" />
    <rect
       x="-85.44136"
       y="-90.782364"
       width="131.03345"
       height="26.212248"
       id="rect2164-0" />
  </defs>
  <sodipodi:namedview
     id="base"
     pagecolor="#ffffff"
     bordercolor="#666666"
     borderopacity="1.0"
     inkscape:pageopacity="0"
     inkscape:pageshadow="2"
     inkscape:zoom="0.35355339"
     inkscape:cx="-90.316581"
     inkscape:cy="-878.70394"
     inkscape:document-units="mm"
     inkscape:current-layer="layer1"
     inkscape:document-rotation="0"
     showgrid="false"
     inkscape:window-width="1500"
     inkscape:window-height="1061"
     inkscape:window-x="104"
     inkscape:window-y="0"
     inkscape:window-maximized="0"
     inkscape:snap-text-baseline="true"
     inkscape:pagecheckerboard="true" />
  <metadata
     id="metadata5">
    <rdf:RDF>
      <cc:Work
         rdf:about="">
        <dc:format>image/svg+xml</dc:format>
        <dc:type
           rdf:resource="http://purl.org/dc/dcmitype/StillImage" />
        <dc:title></dc:title>
      </cc:Work>
    </rdf:RDF>
  </metadata>
  <g
     inkscape:label="Слой 1"
     inkscape:groupmode="layer"
     id="layer1">
    <rect
       style="opacity:1;fill:#3d6bd6;fill-opacity:1;stroke:#000000;stroke-width:1.17843;stroke-miterlimit:4;stroke-dasharray:none;stroke-dashoffset:0;stroke-opacity:0"
       id="rect1863"
       width="392.12045"
       height="247.73906"
       x="-191.87201"
       y="-231.11665"
       inkscape:export-filename="C:\Users\Богдан\Desktop\Python 20-21\Lessons\21\4\data\path56.png"
       inkscape:export-xdpi="96"
       inkscape:export-ydpi="96" />
    <path
       style="opacity:1;fill:#ffffff;fill-opacity:1;stroke:#000000;stroke-width:0.040589;stroke-miterlimit:4;stroke-dasharray:none;stroke-dashoffset:0;stroke-opacity:0"
       d=""
       id="path2036"
       transform="scale(0.26458333)" />
    <path
       style="opacity:1;fill:#ffffff;fill-opacity:1;stroke:#000000;stroke-width:0.0143504;stroke-miterlimit:4;stroke-dasharray:none;stroke-dashoffset:0;stroke-opacity:0"
       d=""
       id="path2042"
       transform="scale(0.26458333)" />
    <path
       style="opacity:1;fill:#ffffff;fill-opacity:1;stroke:#000000;stroke-width:0.0143504;stroke-miterlimit:4;stroke-dasharray:none;stroke-dashoffset:0;stroke-opacity:0"
       d=""
       id="path2050"
       transform="scale(0.26458333)" />
    <g
       id="g2127"
       transform="matrix(0.64013012,0,0,0.64013012,-100.17336,-105.27162)"
       inkscape:export-filename="C:\Users\Богдан\Desktop\Python 20-21\Lessons\21\4\data\path56.png"
       inkscape:export-xdpi="96"
       inkscape:export-ydpi="96">
      <g
         id="g1996"
         transform="translate(-71.646271,-216.35917)">
        <g
           id="g1909"
           transform="matrix(1.5846627,0,0,1.5846627,-72.802048,4.4395264)">
          <g
             id="g1892"
             transform="translate(2.4155812,15.420463)">
            <path
               style="opacity:1;fill:#b71e2d;fill-opacity:1;stroke:#000000;stroke-width:0.378255;stroke-miterlimit:4;stroke-dasharray:none"
               d="m 44.985895,80.847427 c -0.03566,-0.54103 -0.05074,-13.30697 -0.0335,-28.368739 l 0.03132,-27.385051 28.296248,0.0765 28.296237,0.0765 0.0453,13.48254 c 0.0249,7.415391 0.0273,20.133321 0.005,28.26206 l -0.04,14.77953 -4.825611,0.0635 c -2.654086,0.0349 -15.374714,0.0485 -28.26806,0.0302 l -23.442417,-0.0334 z m 51.248995,-3.93514 0.5706,-0.0767 0.0085,-3.11826 c 0.0064,-2.4129 -0.02633,-3.11825 -0.145249,-3.11821 -0.08452,2e-5 -0.983968,0.16245 -1.998768,0.36094 -1.0148,0.19848 -2.131536,0.36123 -2.481636,0.36164 -2.681401,0.003 -6.236369,-1.26342 -8.145894,-2.9023 -0.589417,-0.50588 -0.933979,-0.72867 -0.959047,-0.62011 -0.0743,0.32185 0.588584,2.5512 1.059518,3.56327 1.371577,2.9476 3.106361,4.41989 6.106211,5.1823 1.346862,0.3423 4.658998,0.54558 5.985822,0.36737 z m -2.06258,-7.64765 c 0.736845,-0.26785 2.657556,-1.44085 2.65805,-1.62329 1.06e-4,-0.0545 -0.09648,-0.12722 -0.214709,-0.16156 -0.118227,-0.0343 -0.629578,-0.18272 -1.136313,-0.32981 -1.189956,-0.34539 -3.317903,-1.27383 -4.158418,-1.81437 -0.362096,-0.23286 -1.447269,-1.19475 -2.411493,-2.13753 -2.431643,-2.377559 -3.542302,-3.053939 -5.473198,-3.333119 -1.506379,-0.2178 -3.390465,0.21289 -4.622818,1.05674 -0.359257,0.24599 -0.639383,0.4595 -0.622502,0.47445 0.01682,0.015 0.461427,0.1457 0.987879,0.29059 2.039141,0.56116 3.269181,1.426499 4.667255,3.283449 0.897884,1.19259 2.271407,2.64674 3.029846,3.20772 0.649589,0.48046 1.551035,0.86858 2.757755,1.18737 1.218946,0.32202 3.51606,0.27108 4.538666,-0.10065 z m 2.674644,-7.757519 0.009,-3.31381 -0.399379,-0.0666 c -1.608854,-0.26821 -2.101429,-0.3766 -2.974098,-0.65441 -1.285638,-0.40927 -2.360468,-0.96035 -3.839042,-1.96832 -2.335045,-1.59183 -3.605028,-2.81289 -5.593895,-5.37839 -0.459634,-0.5929 -0.886428,-1.07813 -0.948435,-1.0783 -0.181058,-3.9e-4 -0.136401,2.45143 0.06613,3.63179 0.326851,1.90474 1.027861,3.32528 2.790063,5.65388 0.876784,1.15859 1.963856,2.27849 2.904212,2.99191 1.172269,0.88937 3.606166,2.072849 5.765463,2.803459 1.114672,0.37716 2.068161,0.68728 2.118871,0.68916 0.0507,0.002 0.09623,-1.4878 0.101153,-3.310399 z m -0.52199,-6.29338 c 0.60821,-0.1514 0.690958,-0.30794 0.225272,-0.42616 -0.57155,-0.14509 -2.188405,-1.30192 -3.014395,-2.15674 -1.402569,-1.45152 -2.895907,-3.99371 -4.442626,-7.5629 l -0.960104,-2.21554 -1.023931,-1.007761 c -1.15446,-1.13624 -2.208506,-1.8352 -3.149419,-2.08843 -0.633797,-0.17057 -2.314477,-0.24479 -2.451751,-0.10826 -0.03938,0.0392 0.304767,0.46183 0.764776,0.93924 1.040928,1.08031 1.413659,1.76142 1.793251,3.276881 0.993474,3.96626 2.424814,7.02499 4.169972,8.9111 1.047026,1.13158 3.344027,2.36096 4.816417,2.57778 0.811775,0.11953 2.526026,0.0466 3.272538,-0.13921 z m 0.555936,-6.25646 0.0087,-3.20081 -0.556354,-0.24027 c -1.13402,-0.48973 -2.498915,-1.83184 -3.193595,-3.140291 -0.0724,-0.13638 -0.334111,-0.62376 -0.581553,-1.08307 -0.478792,-0.88872 -1.429965,-3.25116 -1.666457,-4.13898 -0.183488,-0.68884 -0.318363,-0.54801 -0.584597,0.6104 -0.305098,1.32749 -0.319114,5.389031 -0.02245,6.507791 0.661337,2.49407 3.132597,5.77933 5.607522,7.45458 0.349833,0.23679 0.71348,0.43075 0.808109,0.431 0.143049,3.9e-4 0.173519,-0.53929 0.180727,-3.20035 z m -14.930165,2.37702 c 0.0075,-0.008 0.04852,-0.47197 0.09114,-1.0297 l 0.0775,-0.64483 -9.372679,-0.003 c -4.747988,-0.0127 -11.253701,0.0933 -15.361562,0.12706 l -7.468838,-0.0257 -0.0027,0.61477 -0.0027,1.0059 16.013117,-0.0143 c 1.721833,-10e-4 16.019259,-0.0213 16.026766,-0.0299 z m -0.09608,-2.46756 c 0.02187,-0.0217 0.004,-0.18449 -0.04015,-0.36163 -0.05537,-0.22316 -0.161534,-0.3223 -0.345667,-0.3228 -0.539426,-10e-4 -2.124545,-0.52798 -3.052455,-1.01393 -1.067099,-0.55884 -2.09925,-1.50341 -2.73458,-2.50253 -0.414944,-0.65255 -1.673042,-3.330131 -2.054697,-4.372981 -0.29556,-0.80759 -1.274337,-2.47834 -1.968258,-3.35976 -0.776818,-0.98672 -2.136081,-2.21086 -3.118612,-2.80859 -0.992219,-0.60363 -2.148072,-0.87874 -4.021043,-0.95706 -1.799499,-0.0753 -2.99106,0.17326 -4.599518,0.95928 -0.874907,0.42755 -1.270923,0.73269 -2.463892,1.89851 -0.781788,0.764 -1.502841,1.37578 -1.60234,1.35951 -0.135571,-0.0222 -0.42195,0.75552 -1.14264,3.10283 -0.528952,1.72282 -0.96328,3.201541 -0.965174,3.286061 -0.0019,0.0845 0.110604,0.15398 0.249977,0.15435 0.232056,6.2e-4 0.246253,0.0499 0.16845,0.58442 -0.105973,0.72811 -0.532976,1.53261 -1.240333,2.33682 -0.552207,0.62782 -1.098965,0.91172 -2.047164,1.06296 -0.482844,0.077 -0.834557,0.43336 -0.835676,0.84667 -6.22e-4,0.23465 0.225365,0.2374 15.886677,0.19274 8.738026,-0.0249 15.905213,-0.0631 15.927084,-0.0849 z m -5.121607,-7.106091 c -3.30626,-8.76593 -7.314914,-11.91197 -14.820387,-11.7019 -2.256919,-0.004 -2.065913,-0.15561 -2.175965,1.73095 -0.05112,0.87642 -0.05696,1.434 -0.01288,1.47825 1.281571,-0.49199 2.601174,-0.84204 3.979091,-0.93997 2.95936,-0.25109 4.572133,0.34013 7.462935,2.91775 3.679684,3.62183 3.813266,10.074641 8.321641,11.836311 0.56495,0.20973 1.32233,0.0518 1.32233,0.0518 -1.9646,-1.67579 -3.121661,-3.41494 -4.07671,-5.373191 z"
               id="path56"
               sodipodi:nodetypes="ssccccsccccsccssscssssscscssssssssssssccsssscsssscscsssscssssssssccssssscsscccsccccccsccsccsssssssssscssssccsccscccccc"
               inkscape:export-xdpi="96"
               inkscape:export-ydpi="96"
               inkscape:export-filename="C:\Users\Богдан\Desktop\Python 20-21\Lessons\21\4\data\path56.png" />
            <path
               style="opacity:1;fill:#ffffff;fill-opacity:1;stroke:#000000;stroke-width:3.10173;stroke-miterlimit:4;stroke-dasharray:none;stroke-dashoffset:0;stroke-opacity:0"
               d="m 191.3168,183.1581 c 0.44225,-0.40708 2.21108,-1.18537 3.93073,-1.72954 3.46532,-1.09657 7.87803,-5.59296 9.67297,-9.8564 1.37328,-3.26189 1.51716,-5.95072 0.33975,-6.34956 -0.47678,-0.16151 0.60058,-4.93026 2.50137,-11.07188 l 3.33887,-10.78817 5.77529,-5.42896 c 3.1764,-2.98592 8.24156,-6.66211 11.25591,-8.16931 5.20646,-2.60328 5.94597,-2.73831 14.78272,-2.69931 7.59561,0.0335 9.99823,0.36342 13.09673,1.79827 8.30468,3.84571 17.29896,14.58054 22.34092,26.66428 7.37977,17.6866 11.30786,21.90998 24.79618,26.66025 l 5.48279,1.93091 -59.05916,-0.11023 c -34.00527,-0.0635 -58.71805,-0.42419 -58.25507,-0.85035 z"
               id="path1868"
               transform="scale(0.26458333)" />
            <path
               style="opacity:1;fill:#ffffff;fill-opacity:1;stroke:#000000;stroke-width:0.387716;stroke-miterlimit:4;stroke-dasharray:none;stroke-dashoffset:0;stroke-opacity:0"
               d="m 189.44351,191.14063 0.006,-2.28486 13.99402,0.0379 c 7.69672,0.0208 17.39711,-0.002 21.55642,-0.05 4.15932,-0.0483 12.43052,-0.14499 18.38045,-0.21481 10.87524,-0.12763 65.93285,-0.2523 66.03506,-0.14952 0.0495,0.0498 -0.21995,3.4741 -0.36111,4.58865 l -0.0581,0.45847 -1.81231,-0.0941 c -2.06882,-0.10747 -15.18874,-0.12673 -51.89048,-0.0762 -14.13432,0.0195 -34.73423,0.0431 -45.77756,0.0524 l -20.07878,0.017 z"
               id="path1870"
               transform="scale(0.26458333)" />
            <path
               style="opacity:1;fill:#ffffff;fill-opacity:1;stroke:#000000;stroke-width:0.137078;stroke-miterlimit:4;stroke-dasharray:none;stroke-dashoffset:0;stroke-opacity:0"
               d="m 302.36393,177.60013 c -0.82797,-0.0798 -1.42488,-0.2267 -2.12546,-0.52317 -5.49093,-2.32366 -9.57943,-6.58079 -13.58059,-14.14072 -1.09123,-2.06181 -2.14338,-4.28688 -4.42908,-9.36654 -2.94581,-6.54667 -4.5528,-9.72987 -6.53223,-12.93931 -1.6763,-2.71796 -3.52278,-5.15557 -5.37428,-7.09479 l -0.27682,-0.28993 3.31803,0.0102 3.31802,0.0102 0.5067,0.71847 c 4.34096,6.15522 8.21182,13.79629 11.89122,23.47323 0.21871,0.57522 0.41836,1.0711 0.44367,1.10195 0.0253,0.0309 0.30972,0.56894 0.63203,1.19575 2.82283,5.48962 5.57582,9.53141 9.3065,13.66328 0.71333,0.79003 2.71318,2.801 3.56527,3.58507 l 0.67834,0.62419 -0.60538,-0.008 c -0.33296,-0.004 -0.66413,-0.0133 -0.73594,-0.0202 z"
               id="path1872"
               transform="scale(0.26458333)" />
            <path
               style="opacity:1;fill:#ffffff;fill-opacity:1;stroke:#000000;stroke-width:0.274157;stroke-miterlimit:4;stroke-dasharray:none;stroke-dashoffset:0;stroke-opacity:0"
               d="m 353.47463,208.61583 c -0.53349,-0.0323 -1.23764,-0.097 -1.56477,-0.14382 -4.45808,-0.63788 -11.20125,-3.88658 -15.80237,-7.61322 -3.41839,-2.76871 -7.27263,-8.18825 -10.37623,-14.59028 -2.83933,-5.85689 -4.99859,-11.95184 -7.13193,-20.13131 -0.92069,-3.53006 -1.39483,-4.94748 -2.23623,-6.68517 -1.05381,-2.17636 -2.21196,-3.74717 -4.82409,-6.54293 -0.7497,-0.8024 -1.57072,-1.70295 -1.8245,-2.00121 l -0.4614,-0.54229 1.59244,0.005 c 2.43517,0.007 4.92285,0.26329 6.3807,0.65677 2.69879,0.7284 5.91833,2.67825 9.22477,5.58677 0.93021,0.81827 4.29855,4.0616 5.4835,5.27999 l 0.5708,0.58692 1.89119,4.3708 c 3.05014,7.0493 3.88985,8.89998 5.73862,12.64769 4.75046,9.62982 9.16371,16.37058 13.44687,20.53865 2.9314,2.85263 8.09305,6.58112 10.37604,7.49508 0.24855,0.0995 0.45185,0.20388 0.45177,0.23196 -1.8e-4,0.0667 -1.11657,0.32344 -2.01619,0.46377 -2.37397,0.3703 -6.34778,0.54277 -8.91899,0.3871 z"
               id="path1874"
               transform="scale(0.26458333)" />
            <path
               style="opacity:1;fill:#ffffff;fill-opacity:1;stroke:#000000;stroke-width:0.548314;stroke-miterlimit:4;stroke-dasharray:none;stroke-dashoffset:0;stroke-opacity:0"
               d="m 363.58228,195.25975 c -2.23471,-1.36937 -4.84695,-3.53405 -7.63259,-6.32486 -5.17042,-5.18004 -8.71209,-10.00881 -11.5186,-15.70464 -1.54753,-3.14073 -2.43157,-5.68782 -2.72927,-7.86356 -0.66148,-4.83452 -0.63808,-15.13998 0.0461,-20.2873 0.23204,-1.74581 0.80536,-4.31988 0.96029,-4.31147 0.0547,0.003 0.37428,0.86018 0.71013,1.90491 1.40007,4.3552 4.16962,10.86615 6.46514,15.19898 2.56803,4.84718 3.71087,6.51109 6.35425,9.25146 2.65002,2.74725 5.07204,4.53783 7.73903,5.72141 l 1.42912,0.63422 -0.0641,10.35167 c -0.0625,10.10621 -0.12473,12.21718 -0.35986,12.21655 -0.0634,-1.8e-4 -0.69323,-0.35449 -1.39966,-0.78737 z"
               id="path1876"
               transform="scale(0.26458333)" />
            <path
               style="opacity:1;fill:#ffffff;fill-opacity:1;stroke:#000000;stroke-width:0.548314;stroke-miterlimit:4;stroke-dasharray:none;stroke-dashoffset:0;stroke-opacity:0"
               d="m 359.99578,242.31097 c -6.81423,-2.32035 -10.48985,-3.82908 -15.60451,-6.40516 -4.56648,-2.29998 -7.32211,-4.06708 -10.107,-6.48127 -3.24032,-2.80901 -6.71092,-6.65093 -9.82394,-10.87501 -6.51618,-8.84186 -8.98607,-14.63648 -9.70431,-22.76736 -0.27323,-3.09306 -0.41741,-7.13212 -0.28762,-8.05723 l 0.10427,-0.74327 0.48225,0.54792 c 0.26524,0.30136 1.68995,2.0624 3.16602,3.91341 3.6197,4.53913 5.47703,6.63567 8.549,9.65003 2.82607,2.77306 5.16664,4.74613 8.48254,7.15067 7.13416,5.17337 11.95538,7.80515 17.77742,9.70427 2.90757,0.94844 5.84233,1.60276 11.05498,2.46478 l 1.1935,0.19737 -0.0625,10.29344 c -0.0604,9.94735 -0.14416,13.06621 -0.35042,13.0432 -0.0539,-0.006 -2.24527,-0.74212 -4.86972,-1.63579 z"
               id="path1878"
               transform="scale(0.26458333)" />
            <path
               style="opacity:1;fill:#ffffff;fill-opacity:1;stroke:#000000;stroke-width:0.548314;stroke-miterlimit:4;stroke-dasharray:none;stroke-dashoffset:0;stroke-opacity:0"
               d="m 342.12174,261.96343 c -1.95648,-0.24598 -3.44001,-0.60402 -5.94293,-1.43428 -4.41641,-1.46501 -6.83084,-2.8418 -9.6354,-5.49444 -3.35681,-3.17498 -5.64356,-5.71556 -9.33255,-10.36848 -3.36839,-4.24854 -5.41428,-6.24252 -8.4769,-8.26179 -2.61354,-1.72318 -6.50877,-3.3537 -10.37478,-4.34282 -0.59474,-0.15216 -1.08064,-0.31216 -1.07978,-0.35554 0.003,-0.15202 2.32808,-1.60482 3.52468,-2.20238 3.86355,-1.92939 9.3261,-2.97378 13.38723,-2.55953 6.16722,0.62909 10.27117,2.5943 16.18333,7.74951 0.87625,0.76406 3.06723,2.79611 4.86884,4.51567 5.28172,5.04115 8.05185,7.48563 9.62008,8.48914 1.26662,0.81051 5.00065,2.65673 7.90124,3.90661 3.37887,1.45597 5.86739,2.35764 9.07657,3.28873 1.43603,0.41664 2.6651,0.80712 2.73128,0.86773 0.21934,0.2009 -4.05352,2.87686 -6.96702,4.36323 -2.98059,1.52061 -4.89669,1.87708 -10.40951,1.93661 -2.17544,0.0235 -4.45891,-0.0206 -5.07438,-0.098 z"
               id="path1880"
               transform="scale(0.26458333)" />
          </g>
          <path
             style="opacity:1;fill:#ffffff;fill-opacity:1;stroke:#000000;stroke-width:0.548314;stroke-miterlimit:4;stroke-dasharray:none;stroke-dashoffset:0;stroke-opacity:0"
             d="m 309.77629,235.43628 c -2.55176,-0.91678 -4.98883,-2.55524 -7.37856,-4.96067 -3.67167,-3.69579 -5.98393,-7.56091 -10.46736,-17.497 -6.60314,-14.63375 -9.69374,-19.28208 -16.51117,-24.83321 -6.76218,-5.50614 -11.42452,-7.75443 -17.5818,-8.47834 -1.7703,-0.20813 -7.08896,-0.13072 -9.40339,0.13687 -3.7139,0.42939 -6.89713,1.1332 -10.66355,2.3577 l -2.22627,0.72378 0.11143,-3.23838 c 0.18905,-5.4944 0.3582,-6.39333 1.27506,-6.7762 0.59261,-0.24747 9.77618,-0.30862 13.23875,-0.0882 13.47538,0.85798 22.67504,4.79318 30.78742,13.16944 6.28749,6.49202 11.47214,15.26201 16.35587,27.66642 2.90765,7.38529 7.21663,14.01126 12.84066,19.74526 l 2.3852,2.43183 -0.89654,-0.006 c -0.55116,-0.003 -1.26991,-0.13972 -1.86575,-0.35379 z"
             id="path1894"
             transform="scale(0.26458333)" />
          <path
             style="opacity:1;fill:#ffffff;fill-opacity:1;stroke:#000000;stroke-width:0.193858;stroke-miterlimit:4;stroke-dasharray:none;stroke-dashoffset:0;stroke-opacity:0"
             d="m 365.09512,348.44151 c -4.24914,-0.17512 -6.90085,-0.37784 -9.97135,-0.76228 -2.28539,-0.28615 -3.84263,-0.57786 -5.53797,-1.03742 -7.97624,-2.1621 -13.39675,-5.78371 -17.68541,-11.81617 -1.9801,-2.78521 -3.94624,-6.52277 -5.17447,-9.83643 -0.72367,-1.95242 -1.57445,-4.61044 -2.12052,-6.625 -0.30121,-1.11122 -0.65306,-2.66572 -0.6125,-2.70606 0.0412,-0.041 0.86439,0.59353 2.00547,1.54587 2.23923,1.86886 4.06516,3.11673 6.63667,4.53556 7.37861,4.07117 17.15906,6.80203 24.41377,6.81672 0.66753,10e-4 1.43934,-0.0202 1.71514,-0.0479 1.77722,-0.17854 5.04351,-0.68457 7.83953,-1.21455 0.98729,-0.18714 2.53472,-0.48041 3.43872,-0.65171 1.8018,-0.34142 3.99504,-0.73178 4.01257,-0.71415 0.006,0.006 0.036,0.24855 0.0664,0.53868 0.13428,1.28121 0.16289,3.38952 0.1663,12.25317 l 0.004,9.29799 -0.12526,0.0267 c -0.2805,0.0599 -2.2314,0.28981 -2.89649,0.34136 -0.68296,0.0529 -5.24251,0.094 -6.17417,0.0556 z"
             id="path1896"
             transform="scale(0.26458333)" />
        </g>
        <path
           style="opacity:1;fill:#3d6bd6;fill-opacity:1;stroke:#000000;stroke-width:0.193858;stroke-miterlimit:4;stroke-dasharray:none;stroke-dashoffset:0;stroke-opacity:0"
           d="m 8.0946649,600.30912 c -0.011019,-0.0375 -0.1251563,-1.73071 -0.2536375,-3.76268 -0.2300635,-3.63852 -0.2342182,-3.75763 -0.2742812,-7.86337 -0.051474,-5.27511 -0.099507,-17.82875 -0.1074167,-28.07359 -0.00336,-4.35348 -0.01662,-8.64564 -0.029464,-9.53814 l -0.023352,-1.62272 1.1036821,0.003 1.103682,0.003 0.026519,1.75465 c 0.014586,0.96506 0.029561,5.35221 0.03328,9.74923 0.00879,10.39829 0.057376,22.77352 0.1094861,27.8889 0.036593,3.59219 0.059147,4.34181 0.194506,6.46477 0.084212,1.32078 0.1659763,2.50412 0.1816983,2.62965 l 0.02858,0.22822 3.043675,-0.0219 c 1.674022,-0.012 18.247112,0.005 36.829091,0.0389 l 33.785416,0.0608 -0.003,1.10561 -0.003,1.10562 -30.065207,-0.0493 c -16.535864,-0.0271 -33.574091,-0.0455 -37.862726,-0.0409 -6.3445633,0.007 -7.8012521,-0.004 -7.8175542,-0.0598 z"
           id="path1915"
           transform="scale(0.26458333)" />
        <path
           style="opacity:1;fill:#3d6bd6;fill-opacity:1;stroke:#000000;stroke-width:0.387716;stroke-miterlimit:4;stroke-dasharray:none;stroke-dashoffset:0;stroke-opacity:0"
           d="m 7.4648892,549.07749 c -0.028718,-0.18873 -0.051714,-11.77694 -0.051103,-25.75159 l 0.00111,-25.40844 1.053217,0.003 1.0532169,0.003 0.047163,5.83114 c 0.025939,3.20713 0.047771,14.79534 0.048514,25.75158 l 0.00135,19.92043 -1.050628,-0.003 -1.0506281,-0.003 z"
           id="path1917"
           transform="scale(0.26458333)" />
        <path
           style="opacity:1;fill:#3d6bd6;fill-opacity:1;stroke:#000000;stroke-width:0.548314;stroke-miterlimit:4;stroke-dasharray:none;stroke-dashoffset:0;stroke-opacity:0"
           d="m 9.590184,477.99251 c 0.00296,-0.98507 0.028153,-1.36857 0.055984,-0.85221 0.027832,0.51635 0.02541,1.32232 -0.00538,1.79103 -0.030791,0.46872 -0.053563,0.0462 -0.050604,-0.93882 z"
           id="path1919"
           transform="scale(0.26458333)" />
        <path
           style="opacity:1;fill:#3d6bd6;fill-opacity:1;stroke:#000000;stroke-width:0.193858;stroke-miterlimit:4;stroke-dasharray:none;stroke-dashoffset:0;stroke-opacity:0"
           d="m 9.5457162,498.95184 -0.0033,-1.0422 -1.0736023,-0.003 -1.0736023,-0.003 0.00251,-13.70683 c 0.00138,-7.53876 0.00344,-19.7918 0.00458,-27.22898 l 0.00206,-13.52214 1.1162955,0.003 1.1162955,0.003 -0.00997,4.73602 c -0.010718,5.09069 -0.020925,23.95745 -0.022204,41.04131 -4.345e-4,5.80462 -0.013158,10.60132 -0.028274,10.65933 -0.015116,0.058 -0.02897,-0.36353 -0.030786,-0.93674 z"
           id="path1921"
           transform="scale(0.26458333)" />
        <path
           style="opacity:1;fill:#3d6bd6;fill-opacity:1;stroke:#000000;stroke-width:0.387716;stroke-miterlimit:4;stroke-dasharray:none;stroke-dashoffset:0;stroke-opacity:0"
           d="m 7.4833341,417.23782 c 0.00349,-14.40999 0.022804,-42.88164 0.042926,-63.27034 l 0.036587,-37.07038 1.1177673,0.003 1.1177673,0.003 -0.050587,18.7066 c -0.027823,10.28863 -0.073194,38.76021 -0.100826,63.27018 l -0.050239,44.56359 -1.0598677,-0.003 -1.0598678,-0.003 z"
           id="path1923"
           transform="scale(0.26458333)" />
        <path
           style="opacity:1;fill:#3d6bd6;fill-opacity:1;stroke:#000000;stroke-width:0.193858;stroke-miterlimit:4;stroke-dasharray:none;stroke-dashoffset:0;stroke-opacity:0"
           d="m 7.5775792,304.11413 c 2.34e-4,-7.03086 0.00903,-17.95409 0.019555,-24.27386 l 0.019129,-11.49048 1.0886067,0.003 1.0886067,0.003 0.022227,3.49603 c 0.012225,1.92282 0.00769,12.84606 -0.010086,24.27388 l -0.032313,20.77784 -1.0980756,-0.003 -1.0980756,-0.003 z"
           id="path1925"
           transform="scale(0.26458333)" />
        <path
           style="opacity:1;fill:#3d6bd6;fill-opacity:1;stroke:#000000;stroke-width:0.193858;stroke-miterlimit:4;stroke-dasharray:none;stroke-dashoffset:0;stroke-opacity:0"
           d="m 7.6221636,267.35104 c -0.017666,-0.52712 -0.027216,-2.77116 -0.021223,-4.98676 l 0.010897,-4.02837 39.8141884,0.1077 39.814188,0.10769 -0.003,1.10815 -0.003,1.10815 -38.70604,-0.1047 -38.7060396,-0.1047 -0.010491,3.87852 -0.010491,3.87852 -1.0734366,-0.003 -1.0734365,-0.003 z"
           id="path1927"
           transform="scale(0.26458333)" />
        <path
           style="opacity:1;fill:#3d6bd6;fill-opacity:1;stroke:#000000;stroke-width:0.193858;stroke-miterlimit:4;stroke-dasharray:none;stroke-dashoffset:0;stroke-opacity:0"
           d="m 87.28122,259.62113 0.003,-1.10815 40.07803,0.10841 40.07803,0.10841 -0.003,1.10815 -0.003,1.10814 -40.07803,-0.10841 -40.078035,-0.10841 z"
           id="path1929"
           transform="scale(0.26458333)" />
        <path
           style="opacity:1;fill:#3d6bd6;fill-opacity:1;stroke:#000000;stroke-width:0.274157;stroke-miterlimit:4;stroke-dasharray:none;stroke-dashoffset:0;stroke-opacity:0"
           d="m 167.4954,259.87255 0.003,-1.1194 70.89527,0.19177 70.89526,0.19177 -0.003,1.1194 -0.003,1.1194 -70.89526,-0.19177 -70.89526,-0.19177 z"
           id="path1931"
           transform="scale(0.26458333)" />
        <path
           style="opacity:1;fill:#3d6bd6;fill-opacity:1;stroke:#000000;stroke-width:0.0685392;stroke-miterlimit:4;stroke-dasharray:none;stroke-dashoffset:0;stroke-opacity:0"
           d="m 309.28753,260.2415 0.003,-1.1194 15.98874,0.0433 15.98875,0.0433 -0.003,1.1194 -0.003,1.11939 -15.98875,-0.0432 -15.98875,-0.0433 z"
           id="path1933"
           transform="scale(0.26458333)" />
        <path
           style="opacity:1;fill:#3d6bd6;fill-opacity:1;stroke:#000000;stroke-width:0.114803;stroke-miterlimit:4;stroke-dasharray:none;stroke-dashoffset:0;stroke-opacity:0"
           d="m 313.44753,599.32324 0.003,-1.10502 0.16412,-0.0193 c 0.0903,-0.0106 0.62817,-0.0186 1.19536,-0.0178 1.20523,0.002 0.82992,0.006 18.1569,-0.21539 7.37372,-0.0943 13.46655,-0.17818 13.53962,-0.18646 l 0.13285,-0.0151 0.034,-12.56054 0.034,-12.56054 1.10937,0.003 1.10937,0.003 -0.037,13.67183 -0.037,13.67182 -0.24628,-6.6e-4 c -0.13546,-3.7e-4 -1.51012,0.0169 -3.0548,0.0383 -3.16959,0.044 -5.12489,0.0698 -17.63723,0.23299 -10.50043,0.1369 -13.13446,0.16843 -13.89905,0.16636 l -0.5702,-0.002 z"
           id="path1941"
           transform="scale(0.26458333)" />
        <path
           style="opacity:1;fill:#3d6bd6;fill-opacity:1;stroke:#000000;stroke-width:0.324712;stroke-miterlimit:4;stroke-dasharray:none;stroke-dashoffset:0;stroke-opacity:0"
           d="m 346.82779,523.59256 0.13257,-49.01116 1.10485,0.003 1.10485,0.003 -0.13257,49.01116 -0.13257,49.01116 -1.10485,-0.003 -1.10485,-0.003 z"
           id="path1943"
           transform="scale(0.26458333)" />
        <path
           style="opacity:1;fill:#3d6bd6;fill-opacity:1;stroke:#000000;stroke-width:0.114803;stroke-miterlimit:4;stroke-dasharray:none;stroke-dashoffset:0;stroke-opacity:0"
           d="m 346.92908,474.42137 c 0.006,-3.91874 0.0121,-10.76368 0.0127,-15.21096 l 0.001,-8.08596 1.11077,0.003 1.11076,0.003 0.0115,2.69535 c 0.006,1.48245 0.007,6.75591 0.002,11.7188 l -0.01,9.02344 -1.10765,-0.003 -1.10764,-0.003 -0.0175,3.49215 c -0.01,1.92069 -0.0123,0.28591 -0.006,-3.63284 z"
           id="path1945"
           transform="scale(0.26458333)" />
        <path
           style="opacity:1;fill:#3d6bd6;fill-opacity:1;stroke:#000000;stroke-width:0.229606;stroke-miterlimit:4;stroke-dasharray:none;stroke-dashoffset:0;stroke-opacity:0"
           d="m 346.97296,440.71954 c -0.006,-5.71488 -0.0132,-19.84073 -0.0157,-31.39078 -0.003,-11.55005 -0.0151,-23.90403 -0.028,-27.4533 l -0.0235,-6.45321 1.0952,0.003 1.0952,0.003 0.0306,2.70322 c 0.0276,2.43991 0.0385,16.25902 0.0466,58.75034 l 0.003,14.23443 -1.096,-0.003 -1.096,-0.003 z"
           id="path1947"
           transform="scale(0.26458333)" />
        <path
           style="opacity:1;fill:#3d6bd6;fill-opacity:1;stroke:#000000;stroke-width:0.162356;stroke-miterlimit:4;stroke-dasharray:none;stroke-dashoffset:0;stroke-opacity:0"
           d="m 349.11035,376.02277 0.002,-0.60399 -1.10485,-0.003 -1.10485,-0.003 0.006,-2.15446 c 0.008,-3.03353 -0.0261,-20.45225 -0.0453,-22.7823 l -0.0159,-1.93355 1.11825,0.003 1.11826,0.003 0.014,6.37507 c 0.008,3.50629 0.0216,9.81562 0.0308,14.02074 0.009,4.20512 0.009,7.65393 -10e-4,7.66403 -0.0101,0.0101 -0.0176,-0.25343 -0.0167,-0.58562 z"
           id="path1949"
           transform="scale(0.26458333)" />
        <path
           style="opacity:1;fill:#3d6bd6;fill-opacity:1;stroke:#000000;stroke-width:0.162356;stroke-miterlimit:4;stroke-dasharray:none;stroke-dashoffset:0;stroke-opacity:0"
           d="m 346.85888,346.55007 c -0.0117,-1.07561 -0.0409,-9.40356 -0.065,-18.50655 -0.024,-9.103 -0.0511,-17.15252 -0.0601,-17.88782 l -0.0165,-1.33693 1.12427,0.003 1.12426,0.003 -0.004,1.46945 c -0.004,1.48449 0.0758,26.10496 0.10974,33.96364 l 0.0184,4.25376 -1.10502,-0.003 -1.10501,-0.003 z"
           id="path1951"
           transform="scale(0.26458333)" />
        <path
           style="opacity:1;fill:#3d6bd6;fill-opacity:1;stroke:#000000;stroke-width:0.229606;stroke-miterlimit:4;stroke-dasharray:none;stroke-dashoffset:0;stroke-opacity:0"
           d="m 346.72174,306.39367 c 0.003,-1.33202 -0.0262,-11.14073 -0.0651,-21.79713 -0.0388,-10.65639 -0.0688,-20.22604 -0.0665,-21.26588 l 0.004,-1.89062 -2.65624,-0.007 -2.65624,-0.007 0.003,-1.09375 0.003,-1.09374 3.74999,0.0101 3.74998,0.0102 -0.003,1.20312 c -0.004,1.56 0.12482,41.3232 0.14731,45.31306 l 0.0172,3.04693 -1.11631,-0.003 -1.1163,-0.003 z"
           id="path1953"
           transform="scale(0.26458333)" />
        <path
           style="opacity:1;fill:#3d6bd6;fill-opacity:1;stroke:#000000;stroke-width:0.229606;stroke-miterlimit:4;stroke-dasharray:none;stroke-dashoffset:0;stroke-opacity:0"
           d="m 83.849496,599.34633 0.003,-1.12676 14.421822,0.039 c 7.932002,0.0215 26.592922,0.0532 41.468712,0.0705 l 27.04689,0.0315 -0.003,1.09638 -0.003,1.09639 -20.64065,-0.0181 c -11.35236,-0.01 -30.01331,-0.028 -41.46879,-0.0402 l -20.82814,-0.022 z"
           id="path1955"
           transform="scale(0.26458333)" />
        <path
           style="opacity:1;fill:#3d6bd6;fill-opacity:1;stroke:#000000;stroke-width:0.229606;stroke-miterlimit:4;stroke-dasharray:none;stroke-dashoffset:0;stroke-opacity:0"
           d="m 208.38241,599.52324 0.003,-1.0888 1.60399,-0.0369 c 0.8822,-0.0203 5.00958,-0.028 9.17196,-0.017 18.08874,0.0476 84.72022,-0.0683 91.89688,-0.15989 l 2.39071,-0.0305 -0.003,1.12924 -0.003,1.12924 -2.23436,-0.006 c -1.22891,-0.003 -5.80631,0.0122 -10.17201,0.0343 -9.96346,0.0504 -29.92619,0.0898 -53.09423,0.10471 -9.84849,0.006 -22.77903,0.0158 -28.73453,0.021 l -10.82819,0.009 z"
           id="path1957"
           transform="scale(0.26458333)" />
        <path
           style="opacity:1;fill:#3d6bd6;fill-opacity:1;stroke:#000000;stroke-width:0.324712;stroke-miterlimit:4;stroke-dasharray:none;stroke-dashoffset:0;stroke-opacity:0"
           d="m 184.99617,600.55849 c 0.37679,-0.0155 0.9933,-0.0139 1.37001,0.004 0.37671,0.0176 0.0684,0.0303 -0.68509,0.0283 -0.75351,-0.002 -1.06172,-0.0164 -0.68492,-0.032 z"
           id="path1959"
           transform="scale(0.26458333)" />
        <path
           style="opacity:1;fill:#3d6bd6;fill-opacity:1;stroke:#000000;stroke-width:0.324712;stroke-miterlimit:4;stroke-dasharray:none;stroke-dashoffset:0;stroke-opacity:0"
           d="m 166.85729,599.48488 0.003,-1.11947 9.92156,0.0268 c 5.45685,0.0147 14.78407,0.0135 20.72715,-0.003 l 10.80559,-0.0295 -0.003,1.11946 -0.003,1.11947 -9.65639,-0.0261 c -5.31102,-0.0143 -14.63824,-0.0131 -20.72715,0.003 l -11.07076,0.0288 z"
           id="path1961"
           transform="scale(0.26458333)" />
      </g>
      <path
         style="opacity:1;fill:#ffffff;fill-opacity:1;stroke:#000000;stroke-width:0.114803;stroke-miterlimit:4;stroke-dasharray:none;stroke-dashoffset:0;stroke-opacity:0"
         d="m -209.4835,-432.79568 c 0.49947,-0.7659 1.36625,-2.37992 1.83082,-3.40912 0.9136,-2.02402 1.4533,-3.83924 1.74706,-5.87606 0.17962,-1.24545 0.20677,-1.53132 0.21012,-2.21243 0.003,-0.59453 -0.003,-0.67964 -0.068,-0.90503 -0.19903,-0.6952 -0.60985,-1.12793 -1.26209,-1.32943 -0.22176,-0.0685 -0.73361,-0.13043 -1.0864,-0.13143 -0.11315,-3.2e-4 -0.21374,-0.009 -0.22352,-0.0185 -0.0654,-0.0658 1.79856,-6.46334 4.00245,-13.737 2.25632,-7.44666 3.88961,-12.67523 5.0036,-16.01778 l 0.38501,-1.15521 0.39628,-0.008 c 0.31131,-0.006 0.39322,9e-4 0.38206,0.0323 -0.0138,0.0389 -3.43117,11.08394 -4.094,13.23209 -2.08628,6.76139 -3.53223,12.3501 -4.01961,15.53606 -0.0709,0.4633 -0.0868,0.67523 -0.0903,1.20406 -0.005,0.7478 -0.002,0.75796 0.28086,0.88826 0.23909,0.11024 0.41867,0.26342 0.58707,0.50077 1.04236,1.46912 0.52146,5.28501 -1.30738,9.57739 -0.45502,1.06795 -1.36243,2.78533 -1.94971,3.69005 l -0.13668,0.21057 -0.31673,-8.5e-4 -0.31672,-8.6e-4 z"
         id="path2022"
         transform="scale(0.26458333)" />
      <path
         style="opacity:1;fill:#ffffff;fill-opacity:1;stroke:#000000;stroke-width:0.0811781;stroke-miterlimit:4;stroke-dasharray:none;stroke-dashoffset:0;stroke-opacity:0"
         d="m -198.17106,-477.58542 c -0.008,-0.008 -0.18391,-0.0136 -0.39173,-0.0132 -0.20782,4.4e-4 -0.37784,-0.003 -0.37783,-0.007 6e-5,-0.0221 0.44798,-1.32051 0.66379,-1.9242 0.42587,-1.19127 0.75348,-2.04476 1.07187,-2.79239 0.17012,-0.39945 0.539,-1.13951 0.60589,-1.21553 0.0302,-0.0343 0.13691,-0.0901 0.26831,-0.1404 0.73475,-0.28106 2.30501,-1.48596 4.71947,-3.62135 1.65048,-1.45971 3.07072,-2.78855 5.36089,-5.01587 3.08208,-2.9975 5.17441,-4.92776 6.58394,-6.07397 l 0.15598,-0.12683 1.14045,0.009 1.14046,0.009 -0.43691,0.30797 c -3.00273,2.11662 -6.15163,4.59283 -8.65253,6.80409 -0.80573,0.71242 -0.82395,0.7294 -5.81517,5.42052 -2.51608,2.36481 -4.63252,4.35358 -4.7032,4.41949 l -0.12852,0.11984 -0.59012,1.90981 c -0.32456,1.0504 -0.5926,1.91788 -0.59564,1.92775 -0.003,0.01 -0.0118,0.0117 -0.0194,0.004 z"
         id="path2024"
         transform="scale(0.26458333)" />
      <path
         style="opacity:1;fill:#ffffff;fill-opacity:1;stroke:#000000;stroke-width:0.0574016;stroke-miterlimit:4;stroke-dasharray:none;stroke-dashoffset:0;stroke-opacity:0"
         d="m -109.73608,-492.20131 c -0.82224,-0.87195 -2.30636,-2.34155 -3.28885,-3.25667 -3.98913,-3.71561 -8.10188,-6.65853 -11.96869,-8.56432 -3.34943,-1.6508 -5.95681,-2.39083 -9.85966,-2.79839 -1.81073,-0.18909 -4.25518,-0.32002 -6.96386,-0.373 l -0.62887,-0.0123 0.002,-0.73333 0.002,-0.73334 0.1445,0.0102 c 0.0795,0.006 0.4011,0.0284 0.71471,0.0505 8.39594,0.5929 14.19875,2.06444 19.13538,4.85256 3.38445,1.91147 7.87129,5.39908 12.17757,9.46561 0.25715,0.24284 0.57132,0.54317 0.69815,0.66739 l 0.2306,0.22587 -0.007,0.80176 -0.007,0.80175 z"
         id="path2026"
         transform="scale(0.26458333)" />
      <path
         style="opacity:1;fill:#ffffff;fill-opacity:1;stroke:#000000;stroke-width:0.114803;stroke-miterlimit:4;stroke-dasharray:none;stroke-dashoffset:0;stroke-opacity:0"
         d="m -89.457165,-459.98595 c -1.381571,-3.26589 -1.547113,-3.65302 -1.889691,-4.41912 -4.457452,-9.96808 -10.618044,-19.4071 -17.602304,-26.96958 l -0.37613,-0.40727 10e-4,-0.79533 0.001,-0.79533 0.39738,0.39101 c 0.21856,0.21506 0.4836,0.47524 0.58897,0.57818 0.10537,0.10294 0.51206,0.51932 0.90375,0.92529 3.11316,3.22668 5.02211,5.61941 7.594159,9.51875 3.2496,4.92653 6.476789,10.72547 7.898757,14.19329 0.14111,0.34414 0.414004,1.04097 0.606431,1.54853 0.603941,1.59298 1.641393,4.07303 2.790215,6.67007 0.241306,0.5455 0.438717,0.99955 0.438692,1.009 -2.6e-5,0.009 -0.165281,0.0167 -0.367233,0.0161 l -0.367186,-9.9e-4 -0.6187,-1.46255 z"
         id="path2028"
         transform="scale(0.26458333)" />
      <path
         style="opacity:1;fill:#ffffff;fill-opacity:1;stroke:#000000;stroke-width:0.114803;stroke-miterlimit:4;stroke-dasharray:none;stroke-dashoffset:0;stroke-opacity:0"
         d="m -78.382784,-438.37925 c -0.727378,-1.03807 -1.86628,-2.82903 -2.671246,-4.20061 -2.271103,-3.86974 -4.739777,-8.90919 -7.572421,-15.45804 l -0.202992,-0.4693 0.362409,-0.008 c 0.199325,-0.004 0.372389,0.003 0.384587,0.0167 0.0122,0.0135 0.144217,0.29909 0.293376,0.63465 2.086753,4.69456 5.58849,11.93318 7.32645,15.14487 0.395279,0.73046 0.868242,1.56376 1.133412,1.99692 0.395385,0.64587 1.299933,1.96813 1.776525,2.59691 l 0.07714,0.10177 -0.329533,-8.9e-4 -0.329534,-8.9e-4 z"
         id="path2030"
         transform="scale(0.26458333)" />
      <path
         style="opacity:1;fill:#ffffff;fill-opacity:1;stroke:#000000;stroke-width:0.0811781;stroke-miterlimit:4;stroke-dasharray:none;stroke-dashoffset:0;stroke-opacity:0"
         d="m -47.159592,-418.51979 c -2.34338,-0.82599 -4.598449,-1.62332 -5.011265,-1.77184 -6.878802,-2.47476 -11.625729,-4.72578 -15.54592,-7.37197 -3.075969,-2.07633 -5.770224,-4.52312 -8.181068,-7.42965 -0.176171,-0.2124 -0.327767,-0.39862 -0.336879,-0.41384 -0.01303,-0.0217 0.06986,-0.0271 0.388003,-0.0249 l 0.40457,0.003 0.253335,0.28901 c 0.847821,0.96719 2.199541,2.34339 3.282351,3.34179 2.929441,2.70107 6.077675,4.96155 9.329398,6.69866 4.797928,2.5631 13.103658,5.50045 17.462827,6.17578 0.481505,0.0746 0.957708,0.12263 1.458698,0.14714 0.47344,0.0232 0.549745,0.046 0.698952,0.20957 0.160374,0.17577 0.269468,0.43313 0.388802,0.91723 0.100885,0.40924 0.150269,0.66598 0.135467,0.70424 -0.0095,0.0247 -0.06194,0.0312 -0.239395,0.0297 l -0.227185,-0.002 -4.260691,-1.50181 z"
         id="path2032"
         transform="scale(0.26458333)" />
      <path
         style="opacity:1;fill:#ffffff;fill-opacity:1;stroke:#000000;stroke-width:0.0811781;stroke-miterlimit:4;stroke-dasharray:none;stroke-dashoffset:0;stroke-opacity:0"
         d="m -76.530828,-435.8741 c -0.507481,-0.64105 -1.392303,-1.82154 -1.556818,-2.07704 l -0.0392,-0.0609 0.333003,9e-4 0.333004,9e-4 0.137657,0.18267 c 0.375767,0.49865 0.959595,1.22345 1.449245,1.79919 0.176061,0.20701 0.342424,0.40281 0.369697,0.43511 l 0.04959,0.0587 -0.406126,-0.003 -0.406126,-0.003 -0.263926,-0.3334 z"
         id="path2034"
         transform="scale(0.26458333)" />
      <path
         style="opacity:1;fill:#ffffff;fill-opacity:1;stroke:#000000;stroke-width:0.0287008;stroke-miterlimit:4;stroke-dasharray:none;stroke-dashoffset:0;stroke-opacity:0"
         d="m -215.50826,-425.35179 c 0.5803,-0.52669 1.26089,-1.22408 1.86499,-1.911 1.54404,-1.75577 2.90019,-3.55235 4.00199,-5.3017 l 0.1007,-0.15988 0.3247,8.8e-4 0.32469,8.7e-4 0.0896,-0.13858 c 0.0493,-0.0762 0.0913,-0.13689 0.0934,-0.13482 0.002,0.002 -0.0534,0.0935 -0.12315,0.20321 -1.72459,2.71055 -3.8837,5.24147 -6.31888,7.40703 l -0.10704,0.0952 -0.15875,-4.3e-4 -0.15875,-4.3e-4 z"
         id="path2038"
         transform="scale(0.26458333)" />
      <path
         style="opacity:1;fill:#ffffff;fill-opacity:1;stroke:#000000;stroke-width:0.0143504;stroke-miterlimit:4;stroke-dasharray:none;stroke-dashoffset:0;stroke-opacity:0"
         d="m -209.52414,-432.72841 c 10e-6,-10e-4 0.007,-0.0122 0.0151,-0.0244 0.0511,-0.0751 0.18196,-0.28476 0.28038,-0.44922 0.45174,-0.75485 1.06217,-1.90212 1.44968,-2.7246 l 0.0441,-0.0936 0.32466,-1.2e-4 c 0.17856,-6e-5 0.32465,5.5e-4 0.32465,0.001 -3e-5,0.01 -0.25924,0.53825 -0.38767,0.79047 -0.48025,0.94319 -0.93273,1.74529 -1.32786,2.35384 -0.0459,0.0708 -0.0864,0.1335 -0.0898,0.13938 l -0.006,0.0107 -0.31348,-8.2e-4 c -0.17241,-4.5e-4 -0.31347,-0.002 -0.31347,-0.003 z"
         id="path2040"
         transform="scale(0.26458333)" />
      <path
         style="opacity:1;fill:#ffffff;fill-opacity:1;stroke:#000000;stroke-width:0.0143504;stroke-miterlimit:4;stroke-dasharray:none;stroke-dashoffset:0;stroke-opacity:0"
         d="m -205.00154,-443.16927 c 0.001,-0.0113 0.006,-0.0767 0.0105,-0.14548 0.0247,-0.38492 0.0278,-0.76296 0.009,-1.07225 -0.0503,-0.81421 -0.2308,-1.42887 -0.54353,-1.85123 -0.095,-0.12831 -0.19184,-0.22804 -0.30205,-0.3111 -0.088,-0.0663 -0.14855,-0.10182 -0.28579,-0.16756 -0.0765,-0.0366 -0.11359,-0.0571 -0.10733,-0.0592 0.002,-7.8e-4 0.026,0.007 0.0525,0.0171 0.40039,0.15357 0.70086,0.46854 0.90847,0.95228 0.15945,0.37153 0.25875,0.84592 0.2935,1.40217 0.0101,0.1623 0.013,0.27448 0.0124,0.48831 -6.9e-4,0.25574 -0.005,0.38255 -0.0235,0.65619 -0.007,0.11127 -0.007,0.11131 -0.0181,0.11128 -0.008,-2e-5 -0.008,-0.002 -0.006,-0.0205 z"
         id="path2044"
         transform="scale(0.26458333)" />
      <path
         style="opacity:1;fill:#ffffff;fill-opacity:1;stroke:#000000;stroke-width:0.0143504;stroke-miterlimit:4;stroke-dasharray:none;stroke-dashoffset:0;stroke-opacity:0"
         d="m -204.99916,-443.16772 c 2e-5,-0.008 0.002,-0.0368 0.004,-0.0635 0.007,-0.0831 0.016,-0.25761 0.0211,-0.39756 0.006,-0.1743 0.004,-0.59184 -0.004,-0.72308 -0.0383,-0.63102 -0.14278,-1.11524 -0.32665,-1.51405 -0.1305,-0.28304 -0.31121,-0.52279 -0.50902,-0.6753 -0.0765,-0.059 -0.13707,-0.0957 -0.26755,-0.16213 -0.0709,-0.0361 -0.12662,-0.0657 -0.12386,-0.0658 0.009,-2.4e-4 0.0965,0.0361 0.15496,0.0647 0.27607,0.13512 0.49991,0.35671 0.67468,0.6679 0.21272,0.37876 0.34533,0.87959 0.39746,1.50109 0.0192,0.22958 0.0258,0.50201 0.0194,0.81255 -0.002,0.11064 -0.005,0.21522 -0.006,0.23241 -0.001,0.0172 -0.006,0.0919 -0.0104,0.16598 -0.01,0.1589 -0.0109,0.17185 -0.0183,0.17183 -0.004,-1e-5 -0.005,-0.005 -0.005,-0.0151 z"
         id="path2046"
         transform="scale(0.26458333)" />
      <path
         style="opacity:1;fill:#ffffff;fill-opacity:1;stroke:#000000;stroke-width:0.0143504;stroke-miterlimit:4;stroke-dasharray:none;stroke-dashoffset:0;stroke-opacity:0"
         d="m -206.2891,-446.82903 c -0.0155,-0.0166 -0.0362,-0.0558 -0.0458,-0.0863 -0.0146,-0.0466 -0.0111,-0.0486 0.006,-0.003 0.0153,0.0405 0.0243,0.0582 0.0419,0.0822 0.0111,0.0152 0.01,0.0202 -0.002,0.008 z"
         id="path2048"
         transform="scale(0.26458333)" />
      <path
         style="opacity:1;fill:#ffffff;fill-opacity:1;stroke:#000000;stroke-width:0.0143504;stroke-miterlimit:4;stroke-dasharray:none;stroke-dashoffset:0;stroke-opacity:0"
         d="m -148.5993,-416.77898 7.1e-4,-0.26237 0.55728,0.004 c 0.3065,0.002 2.17065,0.008 4.14255,0.0138 l 3.58528,0.01 -6.5e-4,0.23828 -6.4e-4,0.23828 -0.14746,-3.6e-4 c -0.0811,-2e-4 -0.42871,5.9e-4 -0.77247,0.002 -0.34375,10e-4 -1.11544,0.003 -1.71486,0.005 -0.59942,0.002 -1.39748,0.004 -1.77346,0.005 -0.37598,10e-4 -1.01847,0.003 -1.42775,0.004 -0.40928,10e-4 -1.02716,0.003 -1.37306,0.004 -0.34591,0.001 -0.72955,0.002 -0.85255,0.002 l -0.22363,-5.9e-4 z"
         id="path2052"
         transform="scale(0.26458333)" />
      <path
         style="opacity:1;fill:#ffffff;fill-opacity:1;stroke:#000000;stroke-width:0.0143504;stroke-miterlimit:4;stroke-dasharray:none;stroke-dashoffset:0;stroke-opacity:0"
         d="m -148.59931,-416.77785 7.1e-4,-0.26209 0.11622,-7.8e-4 0.11621,-7.8e-4 -0.11621,-0.001 -0.11621,-10e-4 0.002,-0.86133 0.002,-0.86132 4.14257,0.0112 4.14256,0.0112 -0.002,0.86328 -0.002,0.86328 -3.98534,-0.01 -3.98534,-0.01 3.98436,0.0133 c 2.19139,0.007 3.98479,0.0135 3.98532,0.0139 5.4e-4,3.4e-4 6.9e-4,0.10697 3.4e-4,0.23695 l -6.4e-4,0.23632 -0.29785,-7.7e-4 c -0.16382,-4.3e-4 -0.57207,1.9e-4 -0.90723,10e-4 -0.33516,0.001 -0.93546,0.003 -1.334,0.004 -0.39854,10e-4 -1.04015,0.003 -1.4258,0.004 -1.56753,0.004 -2.15942,0.006 -2.8223,0.008 -0.38243,10e-4 -0.87594,0.003 -1.09669,0.003 l -0.40137,0.001 z"
         id="path2054"
         transform="scale(0.26458333)" />
      <path
         style="opacity:1;fill:#ffffff;fill-opacity:1;stroke:#000000;stroke-width:0.0202945;stroke-miterlimit:4;stroke-dasharray:none;stroke-dashoffset:0;stroke-opacity:0"
         d="m -140.28282,-416.77869 6.4e-4,-0.23755 2.59272,0.007 c 1.42599,0.004 4.06231,0.009 5.85848,0.0122 l 3.26576,0.005 -5.6e-4,0.20753 -5.7e-4,0.20753 -0.0622,0.003 c -0.0342,0.002 -0.61652,0.004 -1.29408,0.005 -0.67756,0.001 -1.63714,0.004 -2.13239,0.005 -1.69681,0.005 -2.85196,0.009 -4.35594,0.0131 -0.82796,0.002 -1.91929,0.006 -2.42519,0.007 -0.50589,0.002 -1.0385,0.003 -1.18358,0.002 l -0.26378,-6.7e-4 z"
         id="path2056"
         transform="scale(0.26458333)" />
      <path
         style="opacity:1;fill:#ffffff;fill-opacity:1;stroke:#000000;stroke-width:0.0202945;stroke-miterlimit:4;stroke-dasharray:none;stroke-dashoffset:0;stroke-opacity:0"
         d="m -140.28282,-416.78054 6.4e-4,-0.2357 4.48201,0.0121 c 2.46511,0.007 5.10142,0.0121 5.85848,0.0122 l 1.37647,4e-5 -5.6e-4,0.20467 -5.5e-4,0.20467 -0.0152,0.003 c -0.0147,0.003 -0.79095,0.006 -3.01215,0.012 -1.56677,0.004 -4.81139,0.0137 -5.85027,0.0173 -0.49982,0.002 -1.34318,0.004 -1.87413,0.004 l -0.96537,0.001 z"
         id="path2058"
         transform="scale(0.26458333)" />
      <path
         style="opacity:1;fill:#ffffff;fill-opacity:1;stroke:#000000;stroke-width:0.040589;stroke-miterlimit:4;stroke-dasharray:none;stroke-dashoffset:0;stroke-opacity:0"
         d="m -128.56191,-416.7835 5.6e-4,-0.20716 3.99772,0.0108 c 2.19875,0.006 4.89349,0.01 5.98831,0.009 l 1.99059,-0.002 -4.8e-4,0.17728 -4.8e-4,0.17728 -0.68779,0.005 c -0.37828,0.003 -1.16509,0.006 -1.74846,0.008 -2.76946,0.008 -4.87958,0.015 -6.62368,0.0217 -1.04825,0.004 -2.13337,0.007 -2.41137,0.007 l -0.50547,1.1e-4 z"
         id="path2060"
         transform="scale(0.26458333)" />
    </g>
    <text
       xml:space="preserve"
       id="text2129"
       style="font-style:normal;font-variant:normal;font-weight:bold;font-stretch:normal;font-size:10.5833px;line-height:1.25;font-family:sans-serif;-inkscape-font-specification:'sans-serif, Bold';font-variant-ligatures:normal;font-variant-caps:normal;font-variant-numeric:normal;font-variant-east-asian:normal;white-space:pre;shape-inside:url(#rect2131);fill:#ffffff;fill-opacity:1;stroke:none;"
       transform="matrix(2.06675,0,0,2.06675,-43.670411,165.61157)"
       inkscape:export-filename="C:\Users\Богдан\Desktop\Python 20-21\Lessons\21\4\data\path56.png"
       inkscape:export-xdpi="96"
       inkscape:export-ydpi="96"><tspan
         x="-6.2617188"
         y="-165.10235"><tspan
           style="font-style:normal;font-variant:normal;font-weight:bold;font-stretch:normal;font-size:10.5833px;font-family:sans-serif;-inkscape-font-specification:'sans-serif, Bold';font-variant-ligatures:normal;font-variant-caps:normal;font-variant-numeric:normal;font-variant-east-asian:normal;fill:#ffffff">Untitled 
</tspan></tspan><tspan
         x="-6.2617188"
         y="-151.87322"><tspan
           style="font-style:normal;font-variant:normal;font-weight:bold;font-stretch:normal;font-size:10.5833px;font-family:sans-serif;-inkscape-font-specification:'sans-serif, Bold';font-variant-ligatures:normal;font-variant-caps:normal;font-variant-numeric:normal;font-variant-east-asian:normal;fill:#ffffff">Firefighter Game</tspan></tspan></text>
    <g
       id="g2263"
       transform="translate(-14.289062,172.77411)"
       inkscape:export-xdpi="96"
       inkscape:export-ydpi="96">
      <rect
         style="opacity:1;fill:#3d6bd6;fill-opacity:1;stroke:#000000;stroke-width:0.456306;stroke-miterlimit:4;stroke-dasharray:none;stroke-dashoffset:0;stroke-opacity:0"
         id="rect2216"
         width="40.229126"
         height="15.309134"
         x="-38.785198"
         y="-281.74445" />
      <text
         xml:space="preserve"
         id="text2137"
         style="font-style:normal;font-variant:normal;font-weight:normal;font-stretch:normal;font-size:10.5833px;line-height:1.25;font-family:'Arial Rounded MT Bold';-inkscape-font-specification:'Arial Rounded MT Bold, Normal';font-variant-ligatures:normal;font-variant-caps:normal;font-variant-numeric:normal;font-variant-east-asian:normal;white-space:pre;shape-inside:url(#rect2139);fill:#ffffff;fill-opacity:1;stroke:none;"
         transform="matrix(1.3704398,0,0,1.52867,77.270453,-145.8594)"><tspan
           x="-85.441406"
           y="-81.245975"><tspan
             style="font-style:normal;font-variant:normal;font-weight:normal;font-stretch:normal;font-size:10.5833px;font-family:'Arial Rounded MT Bold';-inkscape-font-specification:'Arial Rounded MT Bold, Normal';font-variant-ligatures:normal;font-variant-caps:normal;font-variant-numeric:normal;font-variant-east-asian:normal;fill:#ffffff">Begin</tspan></tspan></text>
    </g>
    <g
       id="g2269"
       transform="translate(-55.478967,174.80683)"
       inkscape:export-xdpi="96"
       inkscape:export-ydpi="96">
      <rect
         style="opacity:1;fill:#3d6bd6;fill-opacity:1;stroke:#000000;stroke-width:0.535838;stroke-miterlimit:4;stroke-dasharray:none;stroke-dashoffset:0;stroke-opacity:0"
         id="rect2216-4"
         width="54.351395"
         height="15.625626"
         x="0.45772818"
         y="-262.78317" />
      <text
         xml:space="preserve"
         id="text2137-3"
         style="font-style:normal;font-variant:normal;font-weight:normal;font-stretch:normal;font-size:10.5833px;line-height:1.25;font-family:'Arial Rounded MT Bold';-inkscape-font-specification:'Arial Rounded MT Bold, Normal';font-variant-ligatures:normal;font-variant-caps:normal;font-variant-numeric:normal;font-variant-east-asian:normal;white-space:pre;shape-inside:url(#rect2139-8);fill:#ffffff;fill-opacity:1;stroke:none;"
         transform="matrix(1.3704398,0,0,1.52867,117.03615,-126.70631)"><tspan
           x="-85.441406"
           y="-81.245975"><tspan>Options
</tspan></tspan></text>
    </g>
    <g
       id="g2287"
       transform="translate(-134.51545,211.30708)"
       inkscape:export-xdpi="96"
       inkscape:export-ydpi="96">
      <rect
         style="opacity:1;fill:#3d6bd6;fill-opacity:1;stroke:#000000;stroke-width:0.472645;stroke-miterlimit:4;stroke-dasharray:none;stroke-dashoffset:0;stroke-opacity:0"
         id="rect2216-6"
         width="50.488136"
         height="13.08769"
         x="79.779976"
         y="-277.72058" />
      <g
         id="g2280">
        <text
           xml:space="preserve"
           id="text2137-2"
           style="font-style:normal;font-variant:normal;font-weight:normal;font-stretch:normal;font-size:10.5833px;line-height:1.25;font-family:'Arial Rounded MT Bold';-inkscape-font-specification:'Arial Rounded MT Bold, Normal';font-variant-ligatures:normal;font-variant-caps:normal;font-variant-numeric:normal;font-variant-east-asian:normal;white-space:pre;shape-inside:url(#rect2139-4);fill:#ffffff;fill-opacity:1;stroke:none;"
           transform="matrix(1.3704398,0,0,1.52867,196.31576,-141.62876)"><tspan
             x="-85.441406"
             y="-81.245975"><tspan>Credits
</tspan></tspan></text>
      </g>
    </g>
    <g
       id="g2275"
       transform="translate(-142.02735,272.34508)"
       inkscape:export-xdpi="96"
       inkscape:export-ydpi="96">
      <rect
         style="opacity:1;fill:#3d6bd6;fill-opacity:1;stroke:#000000;stroke-width:0.35789;stroke-miterlimit:4;stroke-dasharray:none;stroke-dashoffset:0;stroke-opacity:0"
         id="rect2216-9"
         width="29.33741"
         height="12.913891"
         x="88.888489"
         y="-317.79852" />
      <text
         xml:space="preserve"
         id="text2137-1"
         style="font-style:normal;font-variant:normal;font-weight:normal;font-stretch:normal;font-size:10.5833px;line-height:1.25;font-family:'Arial Rounded MT Bold';-inkscape-font-specification:'Arial Rounded MT Bold, Normal';font-variant-ligatures:normal;font-variant-caps:normal;font-variant-numeric:normal;font-variant-east-asian:normal;white-space:pre;shape-inside:url(#rect2139-0);fill:#ffffff;fill-opacity:1;stroke:none;"
         transform="matrix(1.3704398,0,0,1.52867,205.40629,-181.79592)"><tspan
           x="-85.441406"
           y="-81.245975"><tspan>Quit</tspan></tspan></text>
    </g>
    <rect
       style="opacity:1;fill:#3d6bd6;fill-opacity:1;stroke:#000000;stroke-width:0.972;stroke-miterlimit:4;stroke-dasharray:none;stroke-dashoffset:0;stroke-opacity:0"
       id="rect2366"
       width="214.55637"
       height="82.151321"
       x="-134.30597"
       y="-423.93359" />
  </g>
</svg>
